<svg width="60" height="60" viewBox="0 0 60 60" fill="none" xmlns="http://www.w3.org/2000/svg">
<path d="M25.4214 23.1604L23.468 23.4953L24.8289 31.4033L26.5462 29.686L25.4214 23.1604Z" fill="black"/>
<path d="M40.3316 31.8366C40.6063 31.8366 40.8639 31.7207 41.0485 31.5275C41.4135 31.1411 49.9225 21.9881 43.9936 16.055C42.607 14.6683 40.9155 13.9642 38.9792 13.9642C33.9176 13.9642 28.7358 18.794 28.5211 18.9958C28.285 19.219 28.1691 19.5582 28.2249 19.8802L29.4141 26.8179L31.1356 25.0964L30.2727 20.0906C31.522 19.0173 35.4073 15.9777 38.9707 15.9777C40.396 15.9777 41.6152 16.4757 42.5941 17.4546C46.6039 21.4644 41.2933 28.2175 39.9581 29.7802L34.875 28.9087L33.1577 30.626L40.1684 31.8237C40.2243 31.8323 40.2801 31.8366 40.3316 31.8366Z" fill="black"/>
<path d="M36.8498 34.5843L30.3199 33.4637L28.6069 35.1767L36.5106 36.5376L36.8498 34.5843Z" fill="black"/>
<path d="M20.8405 27.7456L18.8828 28.0848L20.2437 35.9885L21.961 34.2712L20.8405 27.7456Z" fill="black"/>
<path d="M24.0176 39.7667L31.9256 41.1276L32.2604 39.1699L25.7305 38.0537L24.0176 39.7667Z" fill="black"/>
<path d="M51.2232 8.77413C39.5244 -2.92471 20.4886 -2.92471 8.78972 8.77413C-1.38505 18.9489 -2.90912 34.9623 5.17488 46.8415L5.75446 47.6915L7.45455 46.5367L6.87498 45.6866C3.83543 41.2218 2.25983 36.1301 2.07523 31.0169H6.45854V28.9605H2.07952C2.33711 22.1044 5.10191 15.3641 10.2408 10.2252C15.4312 5.03908 22.1672 2.32581 28.9761 2.07681V6.43865H31.0325V2.07681C37.8458 2.32581 44.5817 5.03908 49.7679 10.2252C54.954 15.4156 57.6672 22.1516 57.9163 28.9605H53.5544V31.0169H57.9163C57.6672 37.8302 54.954 44.5661 49.7679 49.7523C44.732 54.7881 38.1119 57.6602 31.0325 57.9135V53.5388H28.9804V57.9178C22.2445 57.6774 15.9206 55.0629 10.9835 50.4692L17.4147 44.0381L27.3404 45.7038L27.6667 43.7547L19.1276 42.3208L37.8243 23.6327L36.3732 22.1816L17.6937 40.8611L16.2297 32.3264L14.2807 32.6612L15.9808 42.5741L10.8247 47.7302L8.78542 49.7565C8.59223 49.9497 8.48061 50.2116 8.48061 50.4821C8.48061 50.7569 8.58795 51.0187 8.78114 51.2119C14.4481 56.8789 21.9826 60 29.9979 60C38.0132 60 45.5477 56.8789 51.2146 51.2119C62.9221 39.5088 62.9221 20.473 51.2232 8.77413Z" fill="black"/>
</svg>
